<svg width="124" height="97" viewBox="0 0 124 97" fill="none" xmlns="http://www.w3.org/2000/svg">
    <path d="M119.136 9.35566H45.8615L38.8042 1.70861C37.799 0.6251 36.3959 0 34.9091 0H6.24028C2.82682 0 0.0834961 2.75044 0.0834961 6.12598V91.5563C0.0834961 94.2859 2.30329 96.4946 5.04662 96.4946H40.4167H49.1283H119.177C121.795 96.4946 123.91 94.3901 123.91 91.7855V14.0647C123.868 11.4602 121.753 9.35566 119.136 9.35566Z" fill="#9ADBF8"/>
    <path d="M118.298 96.4944H5.65419C2.53391 96.4944 0 93.9731 0 90.8685V21.1073C0 18.0027 2.53391 15.4814 5.65419 15.4814H118.319C121.439 15.4814 123.973 18.0027 123.973 21.1073V90.8685C123.952 93.9731 121.418 96.4944 118.298 96.4944Z" fill="url(#paint0_linear)"/>
    <defs>
        <linearGradient id="paint0_linear" x1="61.3373" y1="16.8258" x2="62.4819" y2="87.6961" gradientUnits="userSpaceOnUse">
            <stop stop-color="#6BCAF2"/>
            <stop offset="0.9962" stop-color="#74CCF3"/>
        </linearGradient>
    </defs>
</svg>
